<?xml version="1.0" ?><svg id="Layer_1" style="enable-background:new 0 0 30 30;" version="1.1" viewBox="0 0 30 30" xml:space="preserve" xmlns="http://www.w3.org/2000/svg" xmlns:xlink="http://www.w3.org/1999/xlink"><style type="text/css">
	.st0{fill:#5EA3D7;}
	.st1{fill:#D8D2D2;}
</style><g><path class="st0" d="M5.4199829,9.2400208c0-2.2800293,1.8499756-4.1300049,4.1300049-4.1300049   c2.2699585,0,4.1199951,1.8499756,4.1199951,4.1300049c0,2.2799683-1.8500366,4.1300049-4.1199951,4.1300049   C7.2699585,13.3700256,5.4199829,11.519989,5.4199829,9.2400208z"/><path class="st0" d="M13.1799927,23.8899841c0,0.3500366,0.0700073,0.6900024,0.1799927,1H3c-0.5500488,0-1-0.4399414-1-1   v-2.0699463c0-4.1500244,3.3899536-7.5400391,7.539978-7.5400391c2.2199707,0,4.2199707,0.9800415,5.5999756,2.5100098   c-1.2199707,1.460022-1.9599609,3.3400269-1.9599609,5.3900146V23.8899841z"/><path class="st1" d="M21.5899658,15.1700134c1.9799805,0,3.5900269-1.6099854,3.5900269-3.5900269   c0-1.9799805-1.6100464-3.5899658-3.5900269-3.5899658C19.6199951,7.9900208,18,9.6000061,18,11.5799866   C18,13.5600281,19.6199951,15.1700134,21.5899658,15.1700134z"/><path class="st1" d="M21.5899658,15.769989c-3.539978,0-6.4099731,2.8699951-6.4099731,6.4100342v1.7099609   c0,0.5600586,0.4400024,1,1,1H27c0.5599976,0,1-0.4399414,1-1v-1.7099609C28,18.6399841,25.1300049,15.769989,21.5899658,15.769989   z"/></g></svg>